<svg width="60" height="44" viewBox="0 0 60 44" fill="none" xmlns="http://www.w3.org/2000/svg">
<path d="M20.8807 41V33.7273H23.4233C23.9299 33.7273 24.3478 33.8149 24.6768 33.9901C25.0059 34.1629 25.2509 34.3961 25.4119 34.6896C25.5729 34.9808 25.6534 35.304 25.6534 35.6591C25.6534 35.9716 25.5978 36.2296 25.4865 36.4332C25.3776 36.6368 25.2332 36.7978 25.0533 36.9162C24.8757 37.0346 24.6828 37.1222 24.4744 37.179V37.25C24.697 37.2642 24.9207 37.3423 25.1456 37.4844C25.3705 37.6264 25.5587 37.83 25.7102 38.0952C25.8617 38.3603 25.9375 38.6847 25.9375 39.0682C25.9375 39.4328 25.8546 39.7607 25.6889 40.0518C25.5232 40.343 25.2616 40.5739 24.9041 40.7443C24.5466 40.9148 24.0814 41 23.5085 41H20.8807ZM21.7614 40.2188H23.5085C24.0838 40.2188 24.4922 40.1075 24.7337 39.8849C24.9775 39.66 25.0994 39.3878 25.0994 39.0682C25.0994 38.822 25.0367 38.5947 24.9112 38.3864C24.7857 38.1757 24.607 38.0076 24.375 37.8821C24.143 37.7543 23.8684 37.6903 23.5511 37.6903H21.7614V40.2188ZM21.7614 36.9233H23.3949C23.66 36.9233 23.8991 36.8712 24.1122 36.767C24.3277 36.6629 24.4981 36.5161 24.6236 36.3267C24.7514 36.1373 24.8153 35.9148 24.8153 35.6591C24.8153 35.3395 24.7041 35.0684 24.4815 34.8459C24.259 34.621 23.9063 34.5085 23.4233 34.5085H21.7614V36.9233ZM28.109 33.7273V41H27.271V33.7273H28.109ZM31.8599 41.1136C31.3675 41.1136 30.9354 40.9964 30.5637 40.7621C30.1944 40.5277 29.9056 40.1998 29.6973 39.7784C29.4913 39.357 29.3883 38.8646 29.3883 38.3011C29.3883 37.733 29.4913 37.237 29.6973 36.8132C29.9056 36.3894 30.1944 36.0604 30.5637 35.826C30.9354 35.5916 31.3675 35.4744 31.8599 35.4744C32.3523 35.4744 32.7832 35.5916 33.1525 35.826C33.5242 36.0604 33.813 36.3894 34.019 36.8132C34.2273 37.237 34.3315 37.733 34.3315 38.3011C34.3315 38.8646 34.2273 39.357 34.019 39.7784C33.813 40.1998 33.5242 40.5277 33.1525 40.7621C32.7832 40.9964 32.3523 41.1136 31.8599 41.1136ZM31.8599 40.3608C32.234 40.3608 32.5417 40.2649 32.7832 40.0732C33.0247 39.8814 33.2034 39.6293 33.3194 39.3168C33.4354 39.0043 33.4934 38.6657 33.4934 38.3011C33.4934 37.9366 33.4354 37.5968 33.3194 37.282C33.2034 36.9671 33.0247 36.7126 32.7832 36.5185C32.5417 36.3243 32.234 36.2273 31.8599 36.2273C31.4859 36.2273 31.1781 36.3243 30.9366 36.5185C30.6951 36.7126 30.5164 36.9671 30.4004 37.282C30.2844 37.5968 30.2264 37.9366 30.2264 38.3011C30.2264 38.6657 30.2844 39.0043 30.4004 39.3168C30.5164 39.6293 30.6951 39.8814 30.9366 40.0732C31.1781 40.2649 31.4859 40.3608 31.8599 40.3608ZM37.8125 43.1591C37.4077 43.1591 37.0597 43.107 36.7685 43.0028C36.4773 42.901 36.2346 42.7661 36.0405 42.598C35.8487 42.4323 35.696 42.2547 35.5824 42.0653L36.25 41.5966C36.3258 41.696 36.4216 41.8097 36.5376 41.9375C36.6536 42.0677 36.8123 42.1802 37.0135 42.2749C37.2171 42.3719 37.4834 42.4205 37.8125 42.4205C38.2528 42.4205 38.6162 42.3139 38.9027 42.1009C39.1892 41.8878 39.3324 41.554 39.3324 41.0994V39.9915H39.2614C39.1998 40.0909 39.1122 40.214 38.9986 40.3608C38.8873 40.5052 38.7263 40.6342 38.5156 40.7479C38.3073 40.8591 38.0256 40.9148 37.6705 40.9148C37.2301 40.9148 36.8348 40.8106 36.4844 40.6023C36.1364 40.3939 35.8606 40.0909 35.657 39.6932C35.4557 39.2955 35.3551 38.8125 35.3551 38.2443C35.3551 37.6856 35.4534 37.1991 35.6499 36.7848C35.8464 36.3681 36.1198 36.0462 36.4702 35.8189C36.8205 35.5893 37.2254 35.4744 37.6847 35.4744C38.0398 35.4744 38.3215 35.5336 38.5298 35.652C38.7405 35.768 38.9015 35.9006 39.0128 36.0497C39.1264 36.1965 39.214 36.3172 39.2756 36.4119H39.3608V35.5455H40.1705V41.1562C40.1705 41.625 40.0639 42.0062 39.8509 42.2997C39.6402 42.5956 39.3561 42.8123 38.9986 42.9496C38.6435 43.0893 38.2481 43.1591 37.8125 43.1591ZM37.7841 40.1619C38.1203 40.1619 38.4044 40.085 38.6364 39.9311C38.8684 39.7772 39.0447 39.5559 39.1655 39.267C39.2862 38.9782 39.3466 38.6326 39.3466 38.2301C39.3466 37.8371 39.2874 37.4903 39.169 37.1896C39.0507 36.889 38.8755 36.6534 38.6435 36.483C38.4115 36.3125 38.125 36.2273 37.7841 36.2273C37.429 36.2273 37.133 36.3172 36.8963 36.4972C36.6619 36.6771 36.4856 36.9186 36.3672 37.2216C36.2512 37.5246 36.1932 37.8608 36.1932 38.2301C36.1932 38.6089 36.2524 38.9439 36.3707 39.2351C36.4915 39.5239 36.669 39.7512 36.9034 39.9169C37.1402 40.0803 37.4337 40.1619 37.7841 40.1619Z" fill="black"/>
</svg>
