<svg width="28" height="43" viewBox="0 0 28 43" fill="none" xmlns="http://www.w3.org/2000/svg">
<path fill-rule="evenodd" clip-rule="evenodd" d="M5.10889 18.7146V9.08203H6.59076V18.7146C6.59076 18.9111 6.66883 19.0996 6.80778 19.2385C6.94673 19.3775 7.13519 19.4556 7.3317 19.4556H20.6686C20.8651 19.4556 21.0535 19.3775 21.1925 19.2385C21.3315 19.0996 21.4095 18.9111 21.4095 18.7146V9.08203H22.8914V18.7146C22.8914 19.3042 22.6572 19.8696 22.2403 20.2864C21.8235 20.7033 21.2581 20.9375 20.6686 20.9375H7.3317C6.74217 20.9375 6.17679 20.7033 5.75993 20.2864C5.34308 19.8696 5.10889 19.3042 5.10889 18.7146V18.7146ZM21.4095 2.41333V7.6001L18.4458 4.63623V2.41333C18.4458 2.21681 18.5238 2.02835 18.6628 1.88939C18.8017 1.75043 18.9902 1.67236 19.1867 1.67236H20.6686C20.8651 1.67236 21.0535 1.75043 21.1925 1.88939C21.3315 2.02835 21.4095 2.21681 21.4095 2.41333Z" fill="#BD9B38"/>
<path fill-rule="evenodd" clip-rule="evenodd" d="M12.9523 0.931449C13.2302 0.653629 13.6071 0.497559 14 0.497559C14.393 0.497559 14.7698 0.653629 15.0477 0.931449L24.8977 10.7804C25.0368 10.9195 25.115 11.1082 25.115 11.305C25.115 11.5018 25.0368 11.6905 24.8977 11.8296C24.7586 11.9687 24.5699 12.0469 24.3731 12.0469C24.1764 12.0469 23.9877 11.9687 23.8486 11.8296L14 1.97918L4.15147 11.8296C4.01234 11.9687 3.82364 12.0469 3.62688 12.0469C3.43013 12.0469 3.24143 11.9687 3.1023 11.8296C2.96317 11.6905 2.88501 11.5018 2.88501 11.305C2.88501 11.1082 2.96317 10.9195 3.1023 10.7804L12.9523 0.931449Z" fill="#BD9B38"/>
<path d="M0.880682 40.9375V33.6648H1.76136V36.9034H5.6392V33.6648H6.51989V40.9375H5.6392V37.6847H1.76136V40.9375H0.880682ZM10.3853 41.0511C9.89287 41.0511 9.46082 40.9339 9.08913 40.6996C8.71982 40.4652 8.43099 40.1373 8.22266 39.7159C8.01669 39.2945 7.91371 38.8021 7.91371 38.2386C7.91371 37.6705 8.01669 37.1745 8.22266 36.7507C8.43099 36.3269 8.71982 35.9979 9.08913 35.7635C9.46082 35.5291 9.89287 35.4119 10.3853 35.4119C10.8777 35.4119 11.3086 35.5291 11.6779 35.7635C12.0496 35.9979 12.3384 36.3269 12.5444 36.7507C12.7527 37.1745 12.8569 37.6705 12.8569 38.2386C12.8569 38.8021 12.7527 39.2945 12.5444 39.7159C12.3384 40.1373 12.0496 40.4652 11.6779 40.6996C11.3086 40.9339 10.8777 41.0511 10.3853 41.0511ZM10.3853 40.2983C10.7594 40.2983 11.0671 40.2024 11.3086 40.0107C11.5501 39.8189 11.7288 39.5668 11.8448 39.2543C11.9608 38.9418 12.0188 38.6032 12.0188 38.2386C12.0188 37.8741 11.9608 37.5343 11.8448 37.2195C11.7288 36.9046 11.5501 36.6501 11.3086 36.456C11.0671 36.2618 10.7594 36.1648 10.3853 36.1648C10.0112 36.1648 9.70348 36.2618 9.462 36.456C9.22053 36.6501 9.04179 36.9046 8.92578 37.2195C8.80978 37.5343 8.75178 37.8741 8.75178 38.2386C8.75178 38.6032 8.80978 38.9418 8.92578 39.2543C9.04179 39.5668 9.22053 39.8189 9.462 40.0107C9.70348 40.2024 10.0112 40.2983 10.3853 40.2983ZM14.1362 40.9375V35.483H14.9458V36.3352H15.0169C15.1305 36.044 15.314 35.8179 15.5673 35.657C15.8206 35.4936 16.1248 35.4119 16.4799 35.4119C16.8398 35.4119 17.1393 35.4936 17.3784 35.657C17.6199 35.8179 17.8081 36.044 17.943 36.3352H17.9998C18.1395 36.0535 18.349 35.8298 18.6284 35.6641C18.9077 35.496 19.2427 35.4119 19.6333 35.4119C20.121 35.4119 20.5199 35.5646 20.8301 35.87C21.1402 36.1731 21.2953 36.6454 21.2953 37.2869V40.9375H20.4572V37.2869C20.4572 36.8845 20.3471 36.5968 20.127 36.424C19.9068 36.2512 19.6475 36.1648 19.3493 36.1648C18.9657 36.1648 18.6686 36.2808 18.4579 36.5128C18.2472 36.7424 18.1419 37.0336 18.1419 37.3864V40.9375H17.2896V37.2017C17.2896 36.8916 17.189 36.6418 16.9877 36.4524C16.7865 36.2607 16.5273 36.1648 16.21 36.1648C15.9922 36.1648 15.7886 36.2228 15.5993 36.3388C15.4122 36.4548 15.2607 36.6158 15.1447 36.8217C15.0311 37.0253 14.9743 37.2609 14.9743 37.5284V40.9375H14.1362ZM25.1145 41.0511C24.589 41.0511 24.1356 40.9351 23.7544 40.7031C23.3757 40.4688 23.0833 40.142 22.8773 39.723C22.6737 39.3016 22.5719 38.8116 22.5719 38.2528C22.5719 37.6941 22.6737 37.2017 22.8773 36.7756C23.0833 36.3471 23.3697 36.0133 23.7367 35.7741C24.106 35.5327 24.5369 35.4119 25.0293 35.4119C25.3134 35.4119 25.5939 35.4593 25.8709 35.554C26.1479 35.6487 26.4 35.8026 26.6273 36.0156C26.8546 36.2263 27.0357 36.5057 27.1706 36.8537C27.3056 37.2017 27.373 37.6302 27.373 38.1392V38.4943H23.1685V37.7699H26.5208C26.5208 37.4621 26.4592 37.1875 26.3361 36.946C26.2154 36.7045 26.0426 36.514 25.8176 36.3743C25.5951 36.2346 25.3323 36.1648 25.0293 36.1648C24.6955 36.1648 24.4067 36.2476 24.1628 36.4134C23.9213 36.5767 23.7355 36.7898 23.6053 37.0526C23.4751 37.3153 23.41 37.5971 23.41 37.8977V38.3807C23.41 38.7926 23.481 39.1418 23.623 39.4283C23.7675 39.7124 23.9675 39.929 24.2232 40.0781C24.4789 40.2249 24.776 40.2983 25.1145 40.2983C25.3347 40.2983 25.5336 40.2675 25.7111 40.206C25.891 40.142 26.0461 40.0473 26.1763 39.9219C26.3065 39.794 26.4071 39.6354 26.4782 39.446L27.2878 39.6733C27.2026 39.9479 27.0594 40.1894 26.8581 40.3977C26.6569 40.6037 26.4083 40.7647 26.1124 40.8807C25.8165 40.9943 25.4838 41.0511 25.1145 41.0511Z" fill="#BD9B38"/>
</svg>
