<svg width="31" height="44" viewBox="0 0 31 44" fill="none" xmlns="http://www.w3.org/2000/svg">
<path d="M15.5001 10.2176C16.855 10.2176 18.1544 9.67934 19.1125 8.72126C20.0706 7.76317 20.6089 6.46373 20.6089 5.1088C20.6089 3.75386 20.0706 2.45442 19.1125 1.49633C18.1544 0.538247 16.855 0 15.5001 0C14.1451 0 12.8457 0.538247 11.8876 1.49633C10.9295 2.45442 10.3913 3.75386 10.3913 5.1088C10.3913 6.46373 10.9295 7.76317 11.8876 8.72126C12.8457 9.67934 14.1451 10.2176 15.5001 10.2176V10.2176ZM18.9059 5.1088C18.9059 6.01209 18.5471 6.87838 17.9084 7.5171C17.2696 8.15583 16.4034 8.51466 15.5001 8.51466C14.5968 8.51466 13.7305 8.15583 13.0918 7.5171C12.453 6.87838 12.0942 6.01209 12.0942 5.1088C12.0942 4.2055 12.453 3.33921 13.0918 2.70049C13.7305 2.06176 14.5968 1.70293 15.5001 1.70293C16.4034 1.70293 17.2696 2.06176 17.9084 2.70049C18.5471 3.33921 18.9059 4.2055 18.9059 5.1088V5.1088ZM25.7177 18.7322C25.7177 20.4352 24.0147 20.4352 24.0147 20.4352H6.9854C6.9854 20.4352 5.28247 20.4352 5.28247 18.7322C5.28247 17.0293 6.9854 11.9205 15.5001 11.9205C24.0147 11.9205 25.7177 17.0293 25.7177 18.7322ZM24.0147 18.7254C24.013 18.3065 23.7525 17.0463 22.5979 15.8918C21.4876 14.7814 19.3981 13.6235 15.5001 13.6235C11.6003 13.6235 9.51255 14.7814 8.40224 15.8918C7.24765 17.0463 6.98881 18.3065 6.9854 18.7254H24.0147Z" fill="black"/>
<path d="M0.880682 41.4351V34.1623H3.33807C3.90862 34.1623 4.375 34.2653 4.73722 34.4713C5.1018 34.6749 5.37169 34.9507 5.54688 35.2987C5.72206 35.6467 5.80966 36.035 5.80966 36.4635C5.80966 36.892 5.72206 37.2814 5.54688 37.6318C5.37405 37.9822 5.10653 38.2615 4.74432 38.4699C4.3821 38.6758 3.91809 38.7788 3.35227 38.7788H1.59091V37.9976H3.32386C3.71449 37.9976 4.02817 37.9301 4.26491 37.7951C4.50166 37.6602 4.6733 37.4779 4.77983 37.2483C4.88873 37.0163 4.94318 36.7547 4.94318 36.4635C4.94318 36.1723 4.88873 35.9119 4.77983 35.6822C4.6733 35.4526 4.50047 35.2727 4.26136 35.1424C4.02225 35.0099 3.70502 34.9436 3.30966 34.9436H1.76136V41.4351H0.880682ZM7.1147 41.4351V35.9805H7.92436V36.8044H7.98118C8.08061 36.5345 8.26054 36.3155 8.52095 36.1474C8.78137 35.9793 9.07493 35.8953 9.40163 35.8953C9.46319 35.8953 9.54013 35.8965 9.63246 35.8988C9.72479 35.9012 9.79463 35.9048 9.84197 35.9095V36.7618C9.81357 36.7547 9.74846 36.744 9.64666 36.7298C9.54723 36.7132 9.44188 36.7049 9.33061 36.7049C9.06546 36.7049 8.82872 36.7606 8.62038 36.8718C8.41442 36.9807 8.25107 37.1323 8.13033 37.3264C8.01196 37.5182 7.95277 37.7371 7.95277 37.9834V41.4351H7.1147ZM12.8853 41.5487C12.3929 41.5487 11.9608 41.4315 11.5891 41.1971C11.2198 40.9628 10.931 40.6349 10.7227 40.2135C10.5167 39.7921 10.4137 39.2996 10.4137 38.7362C10.4137 38.168 10.5167 37.672 10.7227 37.2483C10.931 36.8245 11.2198 36.4954 11.5891 36.2611C11.9608 36.0267 12.3929 35.9095 12.8853 35.9095C13.3777 35.9095 13.8086 36.0267 14.1779 36.2611C14.5496 36.4954 14.8384 36.8245 15.0444 37.2483C15.2527 37.672 15.3569 38.168 15.3569 38.7362C15.3569 39.2996 15.2527 39.7921 15.0444 40.2135C14.8384 40.6349 14.5496 40.9628 14.1779 41.1971C13.8086 41.4315 13.3777 41.5487 12.8853 41.5487ZM12.8853 40.7959C13.2594 40.7959 13.5671 40.7 13.8086 40.5082C14.0501 40.3165 14.2288 40.0643 14.3448 39.7518C14.4608 39.4393 14.5188 39.1008 14.5188 38.7362C14.5188 38.3716 14.4608 38.0319 14.3448 37.717C14.2288 37.4022 14.0501 37.1477 13.8086 36.9535C13.5671 36.7594 13.2594 36.6623 12.8853 36.6623C12.5112 36.6623 12.2035 36.7594 11.962 36.9535C11.7205 37.1477 11.5418 37.4022 11.4258 37.717C11.3098 38.0319 11.2518 38.3716 11.2518 38.7362C11.2518 39.1008 11.3098 39.4393 11.4258 39.7518C11.5418 40.0643 11.7205 40.3165 11.962 40.5082C12.2035 40.7 12.5112 40.7959 12.8853 40.7959ZM19.0652 35.9805V36.6907H16.1248V35.9805H19.0652ZM17.0055 41.4351V35.2277C17.0055 34.9152 17.0789 34.6548 17.2257 34.4464C17.3725 34.2381 17.563 34.0818 17.7974 33.9777C18.0318 33.8735 18.2792 33.8214 18.5396 33.8214C18.7456 33.8214 18.9136 33.838 19.0439 33.8711C19.1741 33.9043 19.2711 33.9351 19.335 33.9635L19.0936 34.6879C19.051 34.6737 18.9918 34.6559 18.916 34.6346C18.8426 34.6133 18.7456 34.6027 18.6248 34.6027C18.3478 34.6027 18.1478 34.6725 18.0247 34.8122C17.9039 34.9519 17.8436 35.1566 17.8436 35.4265V41.4351H17.0055ZM20.2397 41.4351V35.9805H21.0778V41.4351H20.2397ZM20.6658 35.0714C20.5025 35.0714 20.3616 35.0158 20.2433 34.9045C20.1272 34.7932 20.0692 34.6595 20.0692 34.5032C20.0692 34.347 20.1272 34.2132 20.2433 34.102C20.3616 33.9907 20.5025 33.9351 20.6658 33.9351C20.8292 33.9351 20.9689 33.9907 21.0849 34.102C21.2032 34.2132 21.2624 34.347 21.2624 34.5032C21.2624 34.6595 21.2032 34.7932 21.0849 34.9045C20.9689 35.0158 20.8292 35.0714 20.6658 35.0714ZM23.4508 34.1623V41.4351H22.6127V34.1623H23.4508ZM27.2727 41.5487C26.7472 41.5487 26.2938 41.4327 25.9126 41.2007C25.5339 40.9663 25.2415 40.6396 25.0355 40.2206C24.8319 39.7992 24.7301 39.3091 24.7301 38.7504C24.7301 38.1917 24.8319 37.6993 25.0355 37.2731C25.2415 36.8446 25.5279 36.5108 25.8949 36.2717C26.2642 36.0302 26.6951 35.9095 27.1875 35.9095C27.4716 35.9095 27.7521 35.9568 28.0291 36.0515C28.3061 36.1462 28.5582 36.3001 28.7855 36.5132C29.0128 36.7239 29.1939 37.0032 29.3288 37.3513C29.4638 37.6993 29.5312 38.1278 29.5312 38.6368V38.9919H25.3267V38.2674H28.679C28.679 37.9597 28.6174 37.6851 28.4943 37.4436C28.3736 37.2021 28.2008 37.0115 27.9759 36.8718C27.7533 36.7322 27.4905 36.6623 27.1875 36.6623C26.8537 36.6623 26.5649 36.7452 26.321 36.9109C26.0795 37.0743 25.8937 37.2873 25.7635 37.5501C25.6333 37.8129 25.5682 38.0946 25.5682 38.3953V38.8782C25.5682 39.2902 25.6392 39.6394 25.7812 39.9258C25.9257 40.2099 26.1257 40.4265 26.3814 40.5757C26.6371 40.7225 26.9342 40.7959 27.2727 40.7959C27.4929 40.7959 27.6918 40.7651 27.8693 40.7035C28.0492 40.6396 28.2043 40.5449 28.3345 40.4194C28.4647 40.2916 28.5653 40.133 28.6364 39.9436L29.446 40.1709C29.3608 40.4455 29.2176 40.687 29.0163 40.8953C28.8151 41.1013 28.5665 41.2622 28.2706 41.3782C27.9747 41.4919 27.642 41.5487 27.2727 41.5487Z" fill="black"/>
</svg>
