<svg width="25" height="44" viewBox="0 0 25 44" fill="none" xmlns="http://www.w3.org/2000/svg">
<path d="M12.4999 1.37543C11.8296 1.37543 11.1868 1.64159 10.7128 2.11535C10.2389 2.58911 9.9726 3.23168 9.9726 3.90168V6.42793H8.70893V3.90168C8.70893 2.89667 9.10834 1.93283 9.81929 1.22219C10.5302 0.511541 11.4945 0.112305 12.4999 0.112305C13.5054 0.112305 14.4696 0.511541 15.1806 1.22219C15.8915 1.93283 16.2909 2.89667 16.2909 3.90168V6.42793H15.0273V3.90168C15.0273 3.23168 14.761 2.58911 14.287 2.11535C13.8131 1.64159 13.1702 1.37543 12.4999 1.37543ZM8.70893 6.42793H6.63652C6.18271 6.42803 5.74399 6.59087 5.4001 6.88687C5.05621 7.18286 4.82997 7.59236 4.76251 8.04094L3.46472 16.6971C3.39748 17.1463 3.42795 17.6046 3.55405 18.0409C3.68015 18.4772 3.89892 18.8812 4.19543 19.2253C4.49194 19.5694 4.85922 19.8456 5.2722 20.0349C5.68519 20.2242 6.13416 20.3222 6.5885 20.3223H18.4101C18.8645 20.3224 19.3137 20.2245 19.7268 20.0353C20.1399 19.846 20.5074 19.5699 20.804 19.2258C21.1007 18.8817 21.3195 18.4776 21.4457 18.0412C21.5719 17.6049 21.6024 17.1464 21.5351 16.6971L20.2361 8.04094C20.1687 7.59257 19.9426 7.18325 19.599 6.88728C19.2554 6.59131 18.8169 6.42833 18.3633 6.42793H16.2909V8.32262C16.2909 8.49012 16.2244 8.65076 16.1059 8.7692C15.9874 8.88764 15.8267 8.95418 15.6591 8.95418C15.4915 8.95418 15.3308 8.88764 15.2123 8.7692C15.0938 8.65076 15.0273 8.49012 15.0273 8.32262V6.42793H9.9726V8.32262C9.9726 8.49012 9.90603 8.65076 9.78754 8.7692C9.66905 8.88764 9.50834 8.95418 9.34077 8.95418C9.17319 8.95418 9.01249 8.88764 8.89399 8.7692C8.7755 8.65076 8.70893 8.49012 8.70893 8.32262V6.42793Z" fill="black"/>
<path d="M4.85795 35.8677C4.81534 35.5079 4.64252 35.2285 4.33949 35.0297C4.03646 34.8308 3.66477 34.7314 3.22443 34.7314C2.90246 34.7314 2.62074 34.7834 2.37926 34.8876C2.14015 34.9918 1.95313 35.135 1.81818 35.3173C1.68561 35.4996 1.61932 35.7067 1.61932 35.9387C1.61932 36.1329 1.66548 36.2998 1.75781 36.4395C1.85251 36.5768 1.97325 36.6916 2.12003 36.7839C2.26681 36.8739 2.42069 36.9484 2.58168 37.0076C2.74266 37.0645 2.89062 37.1106 3.02557 37.1461L3.7642 37.345C3.9536 37.3947 4.1643 37.4634 4.39631 37.551C4.63068 37.6386 4.8544 37.7581 5.06747 37.9096C5.28291 38.0588 5.46046 38.2505 5.60014 38.4849C5.73982 38.7193 5.80966 39.0069 5.80966 39.3478C5.80966 39.7408 5.70668 40.0959 5.50071 40.4132C5.29711 40.7304 4.99882 40.9825 4.60582 41.1696C4.2152 41.3566 3.74053 41.4501 3.18182 41.4501C2.66098 41.4501 2.20999 41.3661 1.82884 41.198C1.45005 41.0299 1.15175 40.7955 0.933949 40.4949C0.718513 40.1942 0.596591 39.845 0.568182 39.4473H1.47727C1.50095 39.7219 1.59328 39.9492 1.75426 40.1291C1.91761 40.3066 2.12358 40.4392 2.37216 40.5268C2.62311 40.612 2.89299 40.6547 3.18182 40.6547C3.51799 40.6547 3.81984 40.6002 4.08736 40.4913C4.35488 40.38 4.56676 40.2261 4.72301 40.0297C4.87926 39.8308 4.95739 39.5988 4.95739 39.3336C4.95739 39.0922 4.88991 38.8957 4.75497 38.7441C4.62003 38.5926 4.44247 38.4695 4.2223 38.3748C4.00213 38.2801 3.7642 38.1973 3.50852 38.1262L2.61364 37.8706C2.04545 37.7072 1.59564 37.474 1.2642 37.171C0.932765 36.868 0.767045 36.4714 0.767045 35.9814C0.767045 35.5742 0.877131 35.219 1.0973 34.916C1.31984 34.6106 1.61813 34.3739 1.99219 34.2058C2.36861 34.0353 2.78883 33.9501 3.25284 33.9501C3.72159 33.9501 4.13826 34.0341 4.50284 34.2022C4.86742 34.368 5.15625 34.5952 5.36932 34.8841C5.58475 35.1729 5.69839 35.5008 5.71023 35.8677H4.85795ZM7.98207 38.041V41.3223H7.144V34.0495H7.98207V36.72H8.05309C8.18093 36.4383 8.37269 36.2145 8.62837 36.0488C8.88642 35.8807 9.2297 35.7967 9.6582 35.7967C10.0299 35.7967 10.3554 35.8713 10.6348 36.0204C10.9141 36.1672 11.1307 36.3933 11.2846 36.6987C11.4409 37.0017 11.519 37.3876 11.519 37.8564V41.3223H10.6809V37.9132C10.6809 37.4799 10.5685 37.1449 10.3436 36.9082C10.121 36.6691 9.81209 36.5495 9.41673 36.5495C9.1421 36.5495 8.89589 36.6075 8.67809 36.7235C8.46265 36.8395 8.2922 37.0088 8.16673 37.2314C8.04362 37.4539 7.98207 37.7238 7.98207 38.041ZM15.2681 41.4359C14.7757 41.4359 14.3436 41.3187 13.9719 41.0843C13.6026 40.85 13.3138 40.5221 13.1055 40.1007C12.8995 39.6793 12.7965 39.1868 12.7965 38.6234C12.7965 38.0552 12.8995 37.5592 13.1055 37.1355C13.3138 36.7117 13.6026 36.3826 13.9719 36.1483C14.3436 35.9139 14.7757 35.7967 15.2681 35.7967C15.7605 35.7967 16.1914 35.9139 16.5607 36.1483C16.9324 36.3826 17.2212 36.7117 17.4272 37.1355C17.6355 37.5592 17.7397 38.0552 17.7397 38.6234C17.7397 39.1868 17.6355 39.6793 17.4272 40.1007C17.2212 40.5221 16.9324 40.85 16.5607 41.0843C16.1914 41.3187 15.7605 41.4359 15.2681 41.4359ZM15.2681 40.6831C15.6422 40.6831 15.9499 40.5872 16.1914 40.3954C16.4329 40.2037 16.6116 39.9515 16.7276 39.639C16.8436 39.3265 16.9016 38.988 16.9016 38.6234C16.9016 38.2588 16.8436 37.9191 16.7276 37.6042C16.6116 37.2894 16.4329 37.0349 16.1914 36.8407C15.9499 36.6466 15.6422 36.5495 15.2681 36.5495C14.8941 36.5495 14.5863 36.6466 14.3448 36.8407C14.1033 37.0349 13.9246 37.2894 13.8086 37.6042C13.6926 37.9191 13.6346 38.2588 13.6346 38.6234C13.6346 38.988 13.6926 39.3265 13.8086 39.639C13.9246 39.9515 14.1033 40.2037 14.3448 40.3954C14.5863 40.5872 14.8941 40.6831 15.2681 40.6831ZM19.019 43.3677V35.8677H19.8287V36.7342H19.9281C19.9896 36.6395 20.0749 36.5188 20.1838 36.372C20.295 36.2228 20.4537 36.0903 20.6596 35.9743C20.868 35.8559 21.1497 35.7967 21.5048 35.7967C21.9641 35.7967 22.3689 35.9115 22.7193 36.1412C23.0697 36.3708 23.3431 36.6963 23.5396 37.1177C23.7361 37.5391 23.8343 38.0363 23.8343 38.6092C23.8343 39.1868 23.7361 39.6876 23.5396 40.1113C23.3431 40.5327 23.0708 40.8594 22.7228 41.0914C22.3748 41.3211 21.9735 41.4359 21.519 41.4359C21.1686 41.4359 20.8881 41.3779 20.6774 41.2619C20.4667 41.1435 20.3045 41.0098 20.1909 40.8606C20.0772 40.7091 19.9896 40.5836 19.9281 40.4842H19.8571V43.3677H19.019ZM19.8429 38.595C19.8429 39.0069 19.9032 39.3703 20.024 39.6852C20.1447 39.9977 20.3211 40.2427 20.5531 40.4203C20.7851 40.5955 21.0692 40.6831 21.4054 40.6831C21.7557 40.6831 22.0481 40.5907 22.2825 40.4061C22.5192 40.219 22.6968 39.9681 22.8152 39.6532C22.9359 39.336 22.9963 38.9833 22.9963 38.595C22.9963 38.2115 22.9371 37.8658 22.8187 37.5581C22.7027 37.2479 22.5263 37.0029 22.2896 36.823C22.0552 36.6407 21.7605 36.5495 21.4054 36.5495C21.0645 36.5495 20.778 36.6359 20.546 36.8088C20.314 36.9792 20.1388 37.2183 20.0204 37.5261C19.902 37.8315 19.8429 38.1878 19.8429 38.595Z" fill="black"/>
</svg>
